<svg width="17" height="24" viewBox="0 0 17 24" fill="none"
    xmlns="http://www.w3.org/2000/svg">
    <path d="M8.98096 12.9038L15.2794 6.46974L12.9905 4.12937L8.98096 0.0869141V12.9038Z" fill="#9FF7EC"/>
    <path d="M8.98105 23.4195L0.969727 16.4378V8.19531" fill="#BADEFF"/>
    <path d="M8.98105 16.3984C8.98105 16.3984 3.22774 10.5436 0.969727 8.19531L8.98105 16.3984Z" fill="#CFE6FF"/>
    <path d="M16.9998 8.19632V16.4113L8.98071 23.4166V16.3955C8.98071 16.3955 14.7418 10.5406 16.9998 8.19238" fill="#BCCFFF"/>
    <path d="M8.98089 12.9038C8.98089 12.9038 4.56925 8.44369 2.68628 6.46186L4.96363 4.12937L8.98089 0.0869141V12.9038Z" fill="#C5C5FF"/>
    <path d="M8.98096 23.4195V16.3984C8.98096 16.3984 14.742 10.5436 17 8.19531L8.98096 23.4156V23.4195Z" fill="#9077ED"/>
    <path d="M0.969727 8.19531C3.22388 10.5436 8.98105 16.3984 8.98105 16.3984V23.4195L0.969727 8.19531Z" fill="#5E9EFC"/>
    <path d="M15.2792 6.4707L8.98071 12.9047V8.76773L15.2792 6.4707Z" fill="#A181F7"/>
    <path d="M2.68652 6.46289C4.57336 8.44472 8.98113 12.9048 8.98113 12.9048V8.7678L2.68652 6.46289Z" fill="#61A9FF"/>
</svg>
